<svg width="100" height="100" viewBox="0 0 100 100" fill="none" xmlns="http://www.w3.org/2000/svg">
<path d="M3.69867 1.67411L96.3013 1.67411C97.4195 1.67411 98.3259 2.58054 98.3259 3.69867V96.3013C98.3259 97.4195 97.4195 98.3259 96.3013 98.3259H3.69867C2.58054 98.3259 1.67411 97.4195 1.67411 96.3013L1.67411 3.69867C1.67411 2.58054 2.58054 1.67411 3.69867 1.67411Z" stroke="black" stroke-width="3.34822"/>
<path d="M26.783 21.3129H39.2364V25.0882H30.873V28.8636H38.6072V32.6389H30.873V39.8751H26.783V21.3129Z" fill="#3D3D3D"/>
<path d="M61.8865 22.3129H65.9764V37.0998H73.5534V40.8751H61.8865V22.3129Z" fill="#3D3D3D"/>
<path d="M40.3312 67.0927C40.3312 68.1938 40.1652 69.2076 39.8331 70.1339C39.501 71.0603 39.0029 71.8643 38.3387 72.546C37.692 73.2276 36.8792 73.7607 35.9004 74.1453C34.9216 74.5298 33.7943 74.722 32.5183 74.722C31.2249 74.722 30.0888 74.5298 29.11 74.1453C28.1312 73.7607 27.3097 73.2276 26.6456 72.546C25.9988 71.8643 25.5094 71.0603 25.1774 70.1339C24.8453 69.2076 24.6792 68.1938 24.6792 67.0927V55.6879H28.7692V66.9354C28.7692 67.5121 28.8566 68.0452 29.0314 68.5346C29.2236 69.024 29.4858 69.4523 29.8179 69.8193C30.15 70.1689 30.5433 70.4485 30.9977 70.6583C31.4696 70.8505 31.9765 70.9467 32.5183 70.9467C33.0602 70.9467 33.5583 70.8505 34.0128 70.6583C34.4672 70.4485 34.8605 70.1689 35.1926 69.8193C35.5246 69.4523 35.7781 69.024 35.9529 68.5346C36.1451 68.0452 36.2413 67.5121 36.2413 66.9354V55.6879H40.3312V67.0927Z" fill="#3D3D3D"/>
<path d="M63.8012 64.5495L57.6662 55.6879H62.8049L66.7638 62.1899L70.5654 55.6879H75.5205L69.5166 64.4709L76.2284 74.2501H71.0897L66.554 66.778L62.1494 74.2501H57.2992L63.8012 64.5495Z" fill="#3D3D3D"/>
</svg>
