<svg width="1027" height="588" viewBox="0 0 1027 588" fill="none" xmlns="http://www.w3.org/2000/svg">
<path d="M778.52 232.255V83.9451L725.152 102.886V68.6843L870.744 17V51.202L817.649 70.0524V218.362L778.52 232.255Z" fill="white"/>
<path d="M653.27 424.858V315.121L692.677 301.132V409.488C692.677 434.913 707.46 447.201 735.657 437.195C763.854 427.188 778.346 404.506 778.346 379.082V270.725L818.026 256.639V366.103C818.026 411.504 791.21 451.977 735.657 471.699C680.104 491.422 653.27 469.738 653.27 424.858Z" fill="white"/>
<path d="M853.863 426.438V243.908L939.217 213.599C978.897 199.512 1000.51 218.653 1000.51 250.67C1000.51 282.414 978.619 317.258 939.217 331.272L892.69 347.785V412.642L853.863 426.438ZM960.864 264.756C960.864 249.435 949.362 244.211 934.041 249.623L892.72 264.29V313.547L934.041 298.88C949.368 293.468 960.864 279.811 960.864 264.756Z" fill="white"/>
<path d="M26.7969 463.045L45.6594 426.79C57.1609 436.113 75.061 440.98 97.5979 432.977C116.709 426.197 126.049 413.037 126.049 402.637C126.049 370.348 31.9665 425.913 31.9665 357.236C31.9665 326.86 55.4902 293.336 93.9538 279.68C119.923 270.46 141.485 271.562 157.654 282.519L138.283 317.847C125.05 308.863 107.411 308.827 90.7515 314.741C75.8055 320.05 67.476 330.395 67.476 341.34C67.476 370.348 161.304 317.61 161.304 385.748C161.304 419.133 139.99 451.882 95.8909 467.536C64.5219 478.656 41.985 474.891 26.7969 463.045Z" fill="white"/>
<path d="M239.765 417.339V269.03L186.404 287.977V253.739L331.99 202.055V236.263L278.901 255.107V403.417L239.765 417.339Z" fill="white"/>
<path d="M481.165 333.733L427.719 204.94L374.703 371.313L330.973 387.052L401.58 179.461L450.292 162.166L520.645 319.719L481.165 333.733Z" fill="white"/>
<path d="M652.107 274.807L616.289 222.681L587.838 232.784V297.641L548.975 311.436V128.901L634.328 98.5912C672.368 85.0859 695.631 101.733 695.631 135.669C695.631 167.958 675.376 192.389 655.679 204.036L696.733 258.971L652.107 274.807ZM655.939 149.755C655.939 134.428 644.171 129.3 628.571 134.839L587.795 149.313V198.576L628.571 184.12C644.171 178.563 655.939 165.076 655.939 149.755V149.755Z" fill="white"/>
<path d="M587.796 341.342L587.826 372.941L26.0303 563.77L26 532.243L587.796 341.342Z" fill="white"/>
<path d="M1000.55 421.264V452.875L653.176 570.869V539.306L1000.55 421.264Z" fill="white"/>
</svg>
