<svg width="69" height="40" viewBox="0 0 69 40" fill="none" xmlns="http://www.w3.org/2000/svg">
<mask id="mask0" mask-type="alpha" maskUnits="userSpaceOnUse" x="0" y="0" width="69" height="40">
<path d="M44.6512 28.9993V21.3051L47.4143 20.3242V27.9217C47.4143 29.7043 48.4508 30.5659 50.4279 29.8643C52.4049 29.1627 53.421 27.5724 53.421 25.7897V18.1923L56.2032 17.2046V24.8797C56.2032 28.063 54.323 30.9008 50.4279 32.2836C46.5328 33.6665 44.6512 32.1461 44.6512 28.9993Z" fill="white"/>
<path d="M58.7139 29.1103V16.3122L64.6985 14.1871C67.4807 13.1994 68.9963 14.5415 68.9963 16.7863C68.9963 19.0121 67.4611 21.4552 64.6985 22.4377L61.4362 23.5956V28.143L58.7139 29.1103ZM66.2163 17.774C66.2163 16.6997 65.4098 16.3334 64.3356 16.7129L61.4383 17.7413V21.195L64.3356 20.1666C65.4102 19.7871 66.2163 18.8296 66.2163 17.774Z" fill="white"/>
<path d="M0.726318 31.677L2.04887 29.135C2.8553 29.7887 4.11037 30.1299 5.69056 29.5688C7.03051 29.0934 7.68542 28.1707 7.68542 27.4415C7.68542 25.1776 1.08879 29.0735 1.08879 24.2582C1.08879 22.1284 2.73816 19.7778 5.43504 18.8203C7.25589 18.1739 8.76774 18.2511 9.90142 19.0194L8.54321 21.4964C7.61539 20.8665 6.37857 20.864 5.21052 21.2787C4.16258 21.6509 3.57855 22.3763 3.57855 23.1436C3.57855 25.1776 10.1574 21.4798 10.1574 26.2573C10.1574 28.5981 8.6629 30.8943 5.57086 31.9919C3.37142 32.7716 1.79124 32.5076 0.726318 31.677Z" fill="white"/>
<path d="M15.6585 28.4722V18.0734L11.9171 19.4019V17.0013L22.1248 13.3774V15.7759L18.4025 17.0972V27.496L15.6585 28.4722Z" fill="white"/>
<path d="M32.5831 22.61L28.8357 13.5797L25.1185 25.2449L22.0523 26.3485L27.003 11.7932L30.4184 10.5806L35.3513 21.6274L32.5831 22.61Z" fill="white"/>
<path d="M44.5694 18.4784L42.058 14.8236L40.0631 15.5319V20.0794L37.3382 21.0467V8.24814L43.3228 6.12298C45.99 5.17605 47.6211 6.34326 47.6211 8.72267C47.6211 10.9866 46.2009 12.6997 44.8198 13.5163L47.6983 17.3681L44.5694 18.4784ZM44.838 9.71034C44.838 8.63566 44.0129 8.27616 42.9191 8.66452L40.0601 9.67935V13.1334L42.9191 12.1199C44.0129 11.7302 44.838 10.7846 44.838 9.71034Z" fill="white"/>
<path d="M53.4324 15.495V5.09622L49.6906 6.42429V4.02621L59.8987 0.402344V2.80043L56.176 4.12213V14.5209L53.4324 15.495Z" fill="white"/>
<path d="M40.06 23.1436L40.0621 25.3591L0.671557 38.7392L0.669434 36.5287L40.06 23.1436Z" fill="white"/>
<path d="M68.9999 28.7471V30.9635L44.6439 39.2367V37.0236L68.9999 28.7471Z" fill="white"/>
</mask>
<g mask="url(#mask0)">
<rect x="0.668823" y="0.402344" width="68.3585" height="38.8337" fill="white"/>
</g>
</svg>
