<svg id="Layer_1" data-name="Layer 1" xmlns="http://www.w3.org/2000/svg" viewBox="0 0 649 166"><title>Artboard 12 copy</title><path d="M631.47,71.44c-5.07-25.43-28.94-41.51-55-37C552,38.66,535.06,62.65,538.93,87.69c3.36,21.71,22,38.2,44.41,39.29a47,47,0,0,0,47.52-35c.36-1.4.16-3,1.34-4.16V73.21C631.35,72.87,631.6,72.07,631.47,71.44Zm-46.3,34.64a26,26,0,0,1-26-25.71c0-14.15,11.86-26,26.17-26a25.84,25.84,0,1,1-.18,51.68Z"/><path d="M398.64,154.14V119.46c26.62,15.35,51.6,4.5,63.19-10.25a46.8,46.8,0,0,0,.63-56.92A45.46,45.46,0,0,0,437,35.19c-13.44-3.48-26.15-1.34-38.62,6.4,1.57-5.7-5-5.26-5-5.26L381,37h-4s.05,56,.06,82.32c0,11.65.08,23.31.12,35m46.71-48.49c-13.52-.16-25-12.15-24.7-25.8.32-14.18,12.15-25.72,26-25.37a25.77,25.77,0,0,1,25.34,26C450.33,95.06,438.81,106,423.89,105.79Z"/><path d="M548.84,40.14c1.74-1.5,1.06-2.06-.61-2.74a48.56,48.56,0,0,0-15.47-3.7c-10.79-.65-20.65,2.13-30.28,8.47,0-1.65-.08-2.68,0-3.69.17-1.74-.68-2.15-2.26-2.13-5.8.06-11.61.09-17.41,0-2,0-2.27.87-2.27,2.52q.06,41.93,0,83.85c0,2,.62,2.57,2.58,2.53,5.46-.12,10.92-.18,16.37,0,2.54.09,3.05-.8,3-3.15-.11-13.74-.06-27.49-.05-41.23,0-17.58,14.34-28.63,31.39-24.1,1.52.41,2.22.42,3-1.08A50.3,50.3,0,0,1,548.84,40.14Z"/><path d="M65.79,74.19C60.07,71.55,54,70,48,68.38c-3.8-1-7.64-1.94-11.09-3.95a4.55,4.55,0,0,1-2.53-4.57,4.66,4.66,0,0,1,3-3.9,14.87,14.87,0,0,1,7.85-1c7.43.61,13.72,4,19.65,8.18,1.75,1.22,2.58,1.17,3.78-.66Q73.51,55.11,78.76,48c1.36-1.84,1-2.73-.71-4.06-10-7.74-21.37-11.35-34-11.62-7,0-13.8,1.22-20,4.75C14.15,42.66,9.54,51.32,9.57,62.5c0,10.64,4.6,18.62,14.38,23.38A85.51,85.51,0,0,0,39.68,91.3c4.81,1.28,9.69,2.35,14.16,4.65,2,1,3.5,2.31,3.38,4.77s-1.78,3.91-4,4.72a16.9,16.9,0,0,1-5.78,1c-9.7.14-17.79-3.84-25-9.89-2.11-1.78-3.2-1.57-4.79.51-2.66,3.49-5.59,6.78-8.41,10.16-4.5,5.39-4.64,5.59,1.19,9.72,16.27,11.54,34.05,15.62,53.25,8.79,11.32-4,17.25-12.72,18.11-24.75C82.74,88.35,77.3,79.5,65.79,74.19Zm-2.9,46.27c-14.52,6-28.6,3.57-42.22-3.2-2.37-1.18-4.5-2.84-6.76-4.23-1.33-.82-1.34-1.6-.32-2.73a73.6,73.6,0,0,0,5.35-6.37c1.29-1.8,2.21-1.63,3.88-.42a41.27,41.27,0,0,0,21.48,8.12,25.72,25.72,0,0,0,10.3-1.08c4.18-1.45,7.25-4,7.73-8.82.51-5.06-1.84-8.39-6.19-10.55C50.7,88.48,44.77,87.29,39,85.69a110.89,110.89,0,0,1-11.47-4C9.91,74.79,12.28,51.09,24,43.25c6.24-4.17,13.09-5.66,20.42-5.64a50.1,50.1,0,0,1,26.06,7.44c2,1.2,2.64,2.13,1,4.16-2,2.4-3.14,6.18-5.59,7.27s-5.12-2.25-7.82-3.4c-6.52-2.75-13.16-4.54-20.27-2.78-5.27,1.3-8.25,4.53-8.67,9.13S31,67.62,36,69.92c4.76,2.19,9.86,3.31,14.89,4.66A79,79,0,0,1,64,79.19c8.68,4,13.12,10.68,12.76,20.29S72.07,116.66,62.89,120.46Z"/><path d="M172.84,108.93c-4-4-8.09-8-12-12.1-1.74-1.86-3-2.4-4.89-.22a29,29,0,0,1-4.51,3.79,25.53,25.53,0,0,1-21.66,5c-12.87-2.84-20.64-16.51-17.65-30.58,2.94-13.8,14.25-21.46,28-18.86,5.89,1.11,10.78,4.23,15,8.28,2,1.92,3.11,2.22,5-.19,3.72-4.72,7.75-9.21,11.83-13.62,1.56-1.68,1.43-2.59-.16-4.12-9.16-8.82-20.07-13.33-32.77-14.07-33.51-2-53.7,22.77-53.36,48.72.29,15.8,6.16,29,18.95,38.67,20.6,15.56,51.27,12.14,68.4-7.31C174.42,110.79,174,110.07,172.84,108.93Zm-10.91,6.39c-8,6.25-17.26,8.66-28.93,8.6-23.18,0-41.78-18.2-42.1-42.87-.35-26.38,22.56-46.64,49-43.6,9.1,1,17.4,3.56,24.59,9.37,1.64,1.33,1.95,2.19.37,3.77a52.4,52.4,0,0,0-5.48,6.25c-1.49,2.06-2.52,1.73-4.37.36-12.05-8.93-26.7-9.42-37.12-1.43-12.9,9.9-15.49,30.35-5.56,44,9.3,12.81,27.26,15.26,41.26,5.62,4.82-3.32,4.82-3.32,9,.84C167.46,111.09,167.42,111,161.93,115.32Z"/><path d="M234,35.35c-.74-1.73-1.61-2.44-3.58-2.39q-8.18.23-16.36,0a3.5,3.5,0,0,0-3.88,2.49q-19.08,44.88-38.33,89.68c-.75,1.75-.94,2.63,1.53,2.58,7-.12,13.93-.1,20.89,0a3,3,0,0,0,3.3-2.28c1.94-5,4.12-10,6.09-15.06.7-1.8,1.54-2.71,3.72-2.68,9.74.14,19.49.1,29.24,0a3,3,0,0,1,3.31,2.23c2,5.05,4.22,10,6.07,15.07.79,2.16,2,2.78,4.1,2.69,3.36-.15,6.73,0,10.09,0s7-.14,10.45,0c2.56.13,2.58-.68,1.71-2.71Q253.09,80.22,234,35.35Zm27.64,87.07c-3.59,0-8,1.11-10.53-.55s-3.06-6.16-4.48-9.42-2-7.8-4.51-9.46-6.94-.54-10.53-.55c-8.82,0-17.64.1-26.45-.07-2.79-.05-4.35.59-5.33,3.42-1.69,4.9-3.95,9.59-5.81,14.43-.63,1.65-1.45,2.34-3.27,2.24a72.15,72.15,0,0,0-8.7,0c-2.76.18-3.08-.6-2-3,5.8-13.31,11.49-26.68,17.2-40,5.21-12.18,10.56-24.32,15.51-36.6,1.44-3.58,3.25-5.28,7.1-4.56a13.24,13.24,0,0,0,2.44,0c7.22,0,7.19,0,10.06,6.73q15.76,36.89,31.56,73.75C265.42,122.41,265.41,122.44,261.62,122.42Z"/><path d="M317,33.73c-12.41-.11-24.84.09-37.25-.1-3-.05-3.36,1-3.34,3.56.1,14.32.05,28.63.05,43,0,14.66.08,29.32-.07,44,0,2.95.89,3.66,3.73,3.62,11.72-.15,23.45.09,35.17-.1,13.22-.21,25.11-4.25,34.78-13.49,13.67-13,17.82-33.49,10.66-51.45C353.89,45.62,336.31,33.91,317,33.73ZM326.44,121c-6,1.5-12.18,1.45-18.33,1.41-7.66,0-15.33-.11-23,0-2.63.06-3.54-.51-3.5-3.35.17-12.81.08-25.63.08-38.45V41.89c0-1.48-.37-3,2.11-3,11.6.14,23.24-.38,34.81.3,23.35,1.36,39.46,17.4,40.16,40.56C359.39,99.84,346.88,115.94,326.44,121Z"/><path d="M206.74,88.84c-.86,2.08.7,1.69,1.76,1.69,9.5,0,19,0,29.17,0-5.28-12.79-10.37-25.13-15.82-38.36C216.55,65,211.65,76.94,206.74,88.84Zm22.37-5.2c.55,1.32-.09,1.64-1.24,1.64H213.94l7.91-19.21C224.5,72.49,226.79,78.07,229.11,83.64Z"/><path d="M318.18,51.57c-6.36-.81-12.75-.16-19.12-.47-2.37-.12-2.91.75-2.88,3,.12,8.77.05,17.54.05,26.32s.09,17.54-.06,26.31c0,2.48.43,3.47,3.19,3.33,4.74-.25,9.51-.07,14.27-.07,17.19,0,28.21-9.89,29.87-26.81C345.09,66.86,334.46,53.63,318.18,51.57Zm19.69,34.12c-2.24,11.66-10.65,18.75-22.61,19-3.48.07-7-.14-10.44.06-2.66.16-3.65-.57-3.56-3.41.21-6.92.07-13.85.07-20.78s.06-14.08,0-21.12c0-2.13.39-3.14,2.83-3,4.63.25,9.34-.24,13.9.39C332.28,58.79,340.66,71.2,337.87,85.69Z"/></svg>